<svg viewBox="0 0 512 512" xmlns="http://www.w3.org/2000/svg" role="img" aria-labelledby="title desc">
  <title id="title">CarsServiceLog Icon</title>
  <desc id="desc">Eine dunkle Karte mit Service-Cockpit, Tachometer und Logbuch mit Häkchen.</desc>
  <defs>
    <linearGradient id="bg" x1="0%" y1="0%" x2="100%" y2="100%">
      <stop offset="0%" stop-color="#030712" />
      <stop offset="45%" stop-color="#0f172a" />
      <stop offset="100%" stop-color="#1f2a52" />
    </linearGradient>
    <linearGradient id="ring" x1="0%" y1="0%" x2="100%" y2="100%">
      <stop offset="0%" stop-color="#f97316" />
      <stop offset="100%" stop-color="#facc15" />
    </linearGradient>
    <linearGradient id="panel" x1="30%" y1="0%" x2="70%" y2="100%">
      <stop offset="0%" stop-color="#0b1329" />
      <stop offset="100%" stop-color="#101f3c" />
    </linearGradient>
    <linearGradient id="card" x1="0%" y1="0%" x2="100%" y2="100%">
      <stop offset="0%" stop-color="#13274c" />
      <stop offset="100%" stop-color="#1b3761" />
    </linearGradient>
    <linearGradient id="cardAccent" x1="0%" y1="0%" x2="100%" y2="100%">
      <stop offset="0%" stop-color="#f97316" />
      <stop offset="100%" stop-color="#fb923c" />
    </linearGradient>
  </defs>
  <rect width="512" height="512" fill="#02050d" />
  <rect width="512" height="512" rx="112" fill="url(#bg)" />
  <rect x="20" y="20" width="472" height="472" rx="104" fill="none" stroke="rgba(255,255,255,0.08)" stroke-width="4" />
  <circle cx="256" cy="212" r="184" fill="none" stroke="rgba(148,161,255,0.2)" stroke-width="12" />
  <circle cx="256" cy="212" r="152" fill="url(#panel)" stroke="rgba(248,250,252,0.08)" stroke-width="8" />
  <circle cx="256" cy="212" r="112" fill="none" stroke="rgba(249,115,22,0.22)" stroke-width="18" stroke-dasharray="24 18" stroke-linecap="round" />
  <path d="M124 272a132 132 0 0 1 264 0" fill="none" stroke="rgba(248,250,252,0.65)" stroke-width="10" stroke-linecap="round" />
  <path d="M256 212L368 148" stroke="url(#ring)" stroke-width="14" stroke-linecap="round" />
  <circle cx="256" cy="212" r="18" fill="#0f172a" stroke="url(#ring)" stroke-width="10" />
  <g transform="translate(108 304)">
    <rect width="296" height="148" rx="40" fill="url(#card)" stroke="rgba(148,161,255,0.25)" stroke-width="6" />
    <rect x="32" y="34" width="152" height="20" rx="10" fill="rgba(248,250,252,0.16)" />
    <rect x="32" y="78" width="184" height="20" rx="10" fill="rgba(248,250,252,0.16)" />
    <circle cx="238" cy="50" r="34" fill="rgba(15,23,42,0.85)" stroke="rgba(148,161,255,0.4)" stroke-width="6" />
    <path d="M226 52l12 12 26-32" fill="none" stroke="url(#cardAccent)" stroke-width="10" stroke-linecap="round" stroke-linejoin="round" />
    <rect x="32" y="18" width="232" height="4" rx="2" fill="rgba(249,115,22,0.35)" />
  </g>
  <path d="M180 284c-18 0-33 12-37 29l-9 42c-2 9 4 18 13 18h26c0 30 25 54 56 54s56-24 56-54h64c0 30 25 54 56 54s56-24 56-54h26c9 0 15-9 13-18l-9-42c-4-17-19-29-37-29Z" fill="rgba(248,250,252,0.12)" stroke="rgba(248,250,252,0.2)" stroke-width="6" />
  <circle cx="200" cy="372" r="34" fill="#0a1226" stroke="url(#ring)" stroke-width="10" />
  <circle cx="312" cy="372" r="34" fill="#0a1226" stroke="url(#ring)" stroke-width="10" />
  <rect x="164" y="256" width="184" height="20" rx="10" fill="rgba(15,23,42,0.9)" stroke="rgba(148,161,255,0.35)" stroke-width="4" />
</svg>
